<svg version="1.2" xmlns="http://www.w3.org/2000/svg" viewBox="0 0 402 401" width="402" height="401">
	<title>simple-logo-svg</title>
	<style>
		.s0 { fill: #000000 } 
	</style>
	<g id="Layer">
		<path id="Layer" fill-rule="evenodd" class="s0" d="m253.1 14.4c15 4.2 26 8.7 40.4 16.7 56.1 31.2 92.5 86.3 100.1 151.4 4 34.2-3.5 74.5-19.6 105-2.9 5.5-5.8 10.7-6.6 11.6-0.8 0.8-2.6 3.7-4.1 6.5-6.6 11.7-24 32.9-35.6 43.3-23.7 21.3-58.1 37.8-93.2 44.8-7.3 1.5-14.1 1.8-35.5 1.8-25.6 0-26.9-0.1-38.5-2.9-23.6-5.6-44.1-13.8-61.4-24.8-40.1-25.3-68.6-61.8-83.6-107.2-7.6-22.7-10.2-41.2-9.1-65.1 1.8-42.2 15.1-79.2 39.4-110.4 21.7-27.8 40.4-43.3 70.1-58.1 20.3-10.2 45.2-17.7 66.2-19.9 22.5-2.3 44-0.1 71 7.3zm-76.1 16.7c-17.1 2.5-26.1 5.1-42.3 12-16.7 7.2-23.6 11.4-39.1 23.8-14 11.3-24.4 22.3-32.6 34.6-3.3 5-6.7 10-7.6 11.3-4 5.8-11.5 22.1-15.2 32.8-11.3 33.3-12.9 64.5-5.1 96.5 9 37 32.1 71.6 64.8 97.1 14.1 10.9 16.6 12.5 32.7 19.4 25.3 10.9 39.8 13.9 67.9 13.8 22.8-0.1 31.6-1.5 52.8-8.5 19.9-6.5 33.5-14.1 52.5-29.2 37.8-30.2 61.8-78.1 63.9-127.7 0.9-22.5-1.9-39.9-10.1-61.9-24.2-64.6-74.9-106.1-139.9-114.6-15.2-1.9-27.1-1.8-42.7 0.6z"/>
		<path id="Layer" class="s0" d="m189.4 48.9c-0.2 0.2-0.4 69.4-0.4 153.6v153.2l4.5 0.6c2.5 0.2 7.4 0.2 10.9 0l6.3-0.6 0.1-153.7 0.1-153.7-10.5 0.1c-5.8 0.1-10.7 0.3-11 0.5z"/>
		<path id="Layer" class="s0" d="m164 52.9c-2.5 1-7.1 2.4-10.2 3.1l-5.6 1.3-0.4 113.6c-0.2 62.5-0.2 127.9 0 145.3 0.3 30 0.5 31.8 2.2 31.8 1 0 5.1 1.2 9.2 2.6 4 1.4 8.1 2.8 9.1 3.1 1.6 0.5 1.7-7.1 1.7-151.1 0-83.4-0.3-151.6-0.7-151.5-0.5 0-2.8 0.8-5.3 1.8z"/>
		<path id="Layer" class="s0" d="m228.8 203c-0.2 83.1-0.2 151.3 0 151.5 0.2 0.1 4-1.2 8.5-3.1 4.5-1.8 9-3.4 9.9-3.4 0.9 0 1.9-0.4 2.2-0.9 0.3-0.5 0.6-45.6 0.7-100.2 0.1-178.9 0-189.9-1.3-190.3-0.7-0.2-4.4-1.1-8.3-2-3.8-1-8-2-9.2-2.3l-2.3-0.5z"/>
		<path id="Layer" class="s0" d="m269 202.4v137.6l9.1-6c5.1-3.3 10.1-6.3 11.3-6.6l2.1-0.5-0.2-124.6-0.2-124.6-7.1-3.8c-4-2-7.9-4.4-8.8-5.2-0.9-0.8-2.7-2-3.9-2.6l-2.3-1.2z"/>
		<path id="Layer" class="s0" d="m126.6 66.9c-0.3 0.5-4.8 3.5-10 6.7l-9.4 5.9v123.3l-0.1 123.2 5.2 2.6c2.9 1.5 7.6 4.2 10.6 6.1 2.9 1.9 5.5 3.3 5.6 3.1 0.4-0.4 0.7-101.8 0.6-200.1-0.1-44.1-0.5-71.7-1-71.7-0.6 0-1.2 0.4-1.5 0.9z"/>
		<path id="Layer" class="s0" d="m72.3 138.1c-6.7 2.5-4 12.9 3.4 12.9 4.1 0 6-8.2 2.6-11.2-2.8-2.4-3.7-2.6-6-1.7z"/>
		<path id="Layer" class="s0" d="m62.8 179c-7.3 2.2-13.9 8.9-16.6 16.9-3.6 10.4 3.1 25.6 13.2 30.2 8.3 3.8 19.5 1.7 26-4.7 7.1-7.1 9.7-20.2 5.7-29-4.5-10-18.2-16.5-28.3-13.4z"/>
		<path id="Layer" class="s0" d="m323.1 179.7c-6.4 2.3-13.5 9.7-14.9 15.5-2.3 9.2-0.6 18.5 4.8 25 15.9 19.2 48.6 0.6 41.5-23.7-3.9-13.6-18.7-21.5-31.4-16.8z"/>
		<path id="Layer" class="s0" d="m69.5 257.5c-1.9 1.8-2.5 3.5-2.5 6.5 0 5.5 3.4 9 8.7 9 4.3 0 5.2-0.5 7.6-4 2.7-4 2.2-8.4-1.4-11.4-4-3.4-9.1-3.5-12.4-0.1z"/>
		<path id="Layer" class="s0" d="m317.1 257.6c-3.2 4-2.7 8.4 1.2 12.2 4.7 4.5 9.9 4.5 12.7-0.1 2.8-4.5 2.5-7.1-1.1-11.2-2.5-2.9-3.8-3.5-6.9-3.5-3 0-4.3 0.6-5.9 2.6z"/>
		<path id="Layer" class="s0" d="m-37.8 197.6c-2.7 1.9-5.2 6.5-5.2 9.6 0 1.3 1.3 3.9 2.8 5.7 3.7 4.5 7.5 4.5 11.4 0.2 4.1-4.6 3.8-8.4-1.1-13.2-4.4-4.4-4.8-4.5-7.9-2.3z"/>
		<path id="Layer" class="s0" d="m434.4 199.4c-5.4 5.4-4.1 12.6 2.9 16.2 6.2 3.3 13.1-3.8 10.7-11.1-1.2-3.7-6.2-8.5-8.7-8.5-0.8 0-3 1.5-4.9 3.4z"/>
		<path id="Layer" class="s0" d="m3.9 421c-10.4 5.4-14.9 13.4-12.8 23 2.1 9.7 10 15.8 23.8 18.4 3.9 0.8 7.8 1.9 8.6 2.6 2.3 1.9 1.8 4.6-1.2 7-2.2 1.7-3.6 2.1-6.8 1.5-7.8-1.2-11.4-2.6-14.4-5.5-2.8-2.8-3-2.9-3.6-1.1-0.3 1.1-2.9 4-5.6 6.5l-5 4.5 3.3 1.7c1.8 0.9 4.7 2.8 6.5 4.1 5.3 4 12.6 6.3 20.3 6.3 11.3 0 17-3.3 21.8-12.5 4.4-8.6 3.1-17.5-3.5-23.6-3.9-3.7-6.5-4.9-16.3-7.5-9.9-2.7-13-5.3-10.7-8.8 2.6-3.9 12.8-3.4 19.2 1 2.1 1.4 3.8 2.4 3.9 2.2 0.2-0.2 0.9-1.9 1.6-3.8 0.7-1.9 2.4-4.7 3.8-6.2l2.5-2.7-6.3-4c-10.9-7.1-19.6-8-29.1-3.1z"/>
		<path id="Layer" class="s0" d="m117.6 421.8c-0.4 2-0.9 18-1.2 35.4l-0.6 31.8h7.6 7.6l0.1-11.8c0.1-6.4 0.4-14.6 0.8-18.1l0.6-6.3 10.8 14.7c5.9 8.1 10.7 14 10.7 13.1 0-3.3 4.4-10.3 11.9-18.7l7.6-8.6 0.6 14.6c0.4 8 0.7 16.1 0.8 17.8l0.1 3.3h8.3 8.2l-0.2-22.7c-0.1-12.6-0.5-28.3-0.9-35.1l-0.6-12.2h-3c-3.1 0-6.8 3.4-26.2 23.8-4.3 4.5-8.2 8.1-8.6 8-0.3-0.2-7.3-7.3-15.4-15.8-8.1-8.5-15.5-15.8-16.5-16.2-1.6-0.5-2 0-2.5 3z"/>
		<path id="Layer" class="s0" d="m298 445.3c0 15.1-0.3 30.8-0.6 35l-0.7 7.7h23.2 23.1v-8-8l-12.2-0.1c-12.6-0.1-18.3-0.8-18-2.2 0.1-0.4 0.2-12.2 0.2-26.2v-25.5h-7.5-7.5z"/>
		<path id="Layer" class="s0" d="m367.4 453c0.2 19.3 0.5 35.1 0.7 35.3 0.2 0.2 11.5 0.1 25.2-0.1l24.7-0.4v-7.3-7.2l-11.2-0.6c-6.2-0.4-14-0.7-17.3-0.7h-6l-0.2-5.5-0.2-5.5h4.8c2.6 0 8.9-0.3 13.9-0.6l9.2-0.7v-6.3-6.4h-14-14v-6-6l6.3-0.1c3.4-0.1 11.1-0.3 17.2-0.5l11-0.4v-8-8h-25.2-25.2z"/>
		<path id="Layer" class="s0" d="m68 454.2v35.3l8.5 0.2 8.5 0.1v-35.4-35.4h-8.5-8.5z"/>
		<path id="Layer" fill-rule="evenodd" class="s0" d="m221.2 419h14.7c16.9 0 19.8 0.6 26.5 5.7 6.9 5.3 10.1 11.7 10.1 20.4 0 5.7-0.4 7.1-2.9 10.3-6.3 8.3-14.1 11.6-27.1 11.6h-6.5v10.9c0 6.1-0.3 11.1-0.7 11.3-0.5 0.2-4.3 0.2-8.6 0l-7.9-0.4 0.6-21.6c0.4-11.9 0.9-27.7 1.2-35zm15.5 16.7c-0.4 0.3-0.7 3.9-0.7 7.9v7.2l4.4 0.6c8.5 1.3 15.6-2.4 15.6-8 0-3.6-1.1-5.4-4.1-6.9-2.8-1.5-14-2.1-15.2-0.8z"/>
		<path id="Layer" class="s0" d="m-9.4 524.2c-0.3 5.1-0.7 21.3-0.9 36l-0.2 26.7 8.1 0.3 8.1 0.3 0.7-11.9c0.3-6.6 0.6-14.3 0.6-17.3 0-3.7 0.4-5.2 1.1-4.7 0.8 0.5 14.8 18.6 19.1 24.8 0.8 1.2 3.7-2.1 7.4-8.4 1.5-2.5 4.8-6.8 7.3-9.5 2.5-2.8 5.3-6.1 6.2-7.5 1.5-2.3 1.6-1.3 2.1 15.8 0.3 10.1 0.7 18.4 0.9 18.5 0.2 0.1 3.9 0.1 8.3-0.1l7.9-0.4-0.7-16.6c-1-23.7-2.5-48.2-3.2-51.5-0.4-2.2-1.1-2.7-3.4-2.7-3.2 0-4.2 1-21 22.3-10.1 12.7-10.2 12.8-12.2 11-3.3-2.9-22.9-26.5-25.1-30.1-1.2-2-2.7-3.2-4-3.2-1.2 0-3.2-0.3-4.3-0.6-2.1-0.6-2.2-0.2-2.8 8.8z"/>
		<path id="Layer" fill-rule="evenodd" class="s0" d="m132 515h3.8l7.5 14.7c8.9 17.5 26.7 55 26.7 56.3 0 0.5-4.1 1-9 1.2l-9 0.3-2.7-6.8-2.6-6.7h-10.2c-5.6 0-12.9 0.3-16.3 0.6l-6.1 0.7-2.5 6.1-2.4 6.1h-9.1c-5 0-9.1-0.3-9.1-0.7 0-1.2 26.5-53 30.3-59.3 2.1-3.3 3.7-6.4 3.7-6.8 0-0.4 0.7-1.9 1.6-3.2 1.3-1.9 2.5-2.5 5.4-2.5zm1.4 32.1l-3.2-6.5-1.5 3.4c-0.8 1.9-2.7 6.1-4.1 9.3-1.4 3.2-2.6 6-2.6 6.2 0 0.3 4.1 0.5 9 0.5 5 0 9-0.3 9-0.8 0-0.4-0.8-1.8-1.7-3.1-0.9-1.3-3.1-5.4-4.9-9z"/>
		<path id="Layer" class="s0" d="m195.8 551.2l0.2 36.3h8.5 8.5v-13.1c0-10.6 0.3-13.4 1.5-14.4 0.9-0.7 1.7-1.1 1.9-0.9 0.1 0.2 3.6 4.2 7.7 8.9 4.1 4.7 9.2 10.6 11.2 13.2l3.8 4.7 10.2 0.3c5.6 0.2 10.3 0.2 10.5 0.2 0.6-0.3-9.9-13.6-17.4-22.2-10-11.4-11.8-13.5-12.7-14.9-0.8-1.2 12.3-17.3 22.3-27.4l5.6-5.6-7.1 0.1c-3.8 0.1-8.3-0.2-10-0.6-3.2-0.7-2.4-1.6-22 22.2-6.5 7.8-6.5 7.8-6.5-8.5v-14.5h-8.2-8.3z"/>
		<path id="Layer" class="s0" d="m284 541.7c0 14.8 0.3 31.2 0.7 36.3l0.6 9.2 24.4-0.3 24.3-0.4v-8.3-8.2h-16.4c-10.4 0-16.7-0.4-17.1-1-0.4-0.6-0.4-3.3 0-6l0.7-4.9 4.1 0.2c2.3 0 8.4 0 13.5-0.1l9.2-0.2v-6.9-6.8l-9.2-0.7c-5-0.3-11.3-0.6-14-0.6h-5l0.7-5.3c0.4-2.8 0.8-5.3 0.9-5.4 0.1-0.1 7.2-0.3 15.9-0.5l15.7-0.3v-7.8-7.7h-17.7c-9.8 0-20.8-0.3-24.5-0.7l-6.8-0.6z"/>
		<path id="Layer" fill-rule="evenodd" class="s0" d="m363 515.1l14.2 0.5c21.1 0.7 24.2 1 28.4 3.2 8.8 4.5 13.4 12.2 13.4 22.3 0 7.2-1.8 11.6-7.2 17.2-2.1 2.2-3.8 4.4-3.8 4.9 0 0.5 2.9 5.2 6.5 10.4 6.9 10.1 8.2 14.1 4.3 13-1.3-0.3-5.3-0.6-8.9-0.6h-6.6l-6.4-10.5c-6.2-10.1-6.5-10.5-9.9-10.5-8.1 0-8.1 0-7.9 11.9l0.1 10.6-7.8-0.2-7.9-0.2-0.3-36zm24.6 16.9h-8.6v18h8.4c10 0 11.2-0.4 13.1-4.1 2.3-4.3 1.8-7.7-1.4-11-2.8-2.8-3.4-2.9-11.5-2.9z"/>
		<path id="Layer" class="s0" d="m199.6 617.1c-3.1 2.5-6.6 8.8-6.6 12.1 0 3 3.3 8.3 6.4 10.3 2.3 1.5 2.7 1.5 6 0 9.7-4.6 10-18.1 0.6-23-3.6-1.9-3.2-1.9-6.4 0.6z"/>
	</g>
</svg>